<svg 
 xmlns="http://www.w3.org/2000/svg"
 xmlns:xlink="http://www.w3.org/1999/xlink"
 width="47px" height="47px">
<path fill-rule="evenodd"  fill="rgb(255, 255, 255)"
 d="M47.002,43.385 C47.002,44.384 46.649,45.235 45.942,45.942 C45.236,46.648 44.384,47.001 43.386,47.001 C42.369,47.001 41.522,46.643 40.844,45.927 L31.156,36.268 C27.785,38.602 24.028,39.771 19.884,39.771 C17.192,39.771 14.617,39.248 12.159,38.203 C9.701,37.158 7.583,35.745 5.803,33.966 C4.023,32.186 2.611,30.068 1.566,27.610 C0.521,25.152 -0.002,22.577 -0.002,19.885 C-0.002,17.192 0.521,14.617 1.566,12.159 C2.611,9.702 4.023,7.583 5.803,5.803 C7.583,4.024 9.701,2.611 12.159,1.566 C14.616,0.521 17.192,-0.002 19.884,-0.002 C22.577,-0.002 25.153,0.521 27.611,1.566 C30.068,2.611 32.187,4.024 33.966,5.803 C35.746,7.583 37.158,9.702 38.203,12.159 C39.248,14.617 39.771,17.192 39.771,19.885 C39.771,24.028 38.603,27.784 36.268,31.155 L45.956,40.844 C46.654,41.540 47.002,42.387 47.002,43.385 ZM28.825,10.944 C26.348,8.468 23.368,7.230 19.884,7.230 C16.401,7.230 13.420,8.468 10.944,10.944 C8.468,13.420 7.230,16.401 7.230,19.884 C7.230,23.368 8.468,26.348 10.944,28.824 C13.421,31.300 16.401,32.539 19.884,32.539 C23.369,32.539 26.348,31.301 28.825,28.824 C31.301,26.348 32.540,23.368 32.540,19.884 C32.540,16.401 31.301,13.420 28.825,10.944 ZM28.020,21.692 L21.693,21.692 L21.693,28.019 C21.693,28.264 21.603,28.476 21.425,28.655 C21.246,28.834 21.034,28.923 20.789,28.923 L18.981,28.923 C18.736,28.923 18.525,28.834 18.346,28.655 C18.167,28.476 18.077,28.264 18.077,28.019 L18.077,21.692 L11.750,21.692 C11.505,21.692 11.293,21.603 11.115,21.424 C10.936,21.245 10.846,21.033 10.846,20.788 L10.846,18.981 C10.846,18.736 10.936,18.524 11.115,18.345 C11.293,18.166 11.505,18.076 11.750,18.076 L18.077,18.076 L18.077,11.749 C18.077,11.505 18.167,11.293 18.346,11.114 C18.525,10.935 18.736,10.845 18.981,10.845 L20.789,10.845 C21.034,10.845 21.246,10.935 21.425,11.114 C21.603,11.293 21.693,11.505 21.693,11.749 L21.693,18.076 L28.020,18.076 C28.265,18.076 28.477,18.166 28.656,18.345 C28.835,18.524 28.924,18.736 28.924,18.981 L28.924,20.788 C28.924,21.033 28.835,21.245 28.656,21.424 C28.477,21.603 28.265,21.692 28.020,21.692 Z"/>
</svg>