<svg 
 xmlns="http://www.w3.org/2000/svg"
 xmlns:xlink="http://www.w3.org/1999/xlink"
 width="28px" height="32px">
<path fill-rule="evenodd"  fill="rgb(255, 255, 255)"
 d="M25.996,8.924 C25.949,8.409 25.517,8.014 25.000,8.014 L20.000,8.014 L20.000,6.014 C20.000,2.705 17.308,0.014 14.000,0.014 C10.691,0.014 8.000,2.705 8.000,6.014 L8.000,8.014 L3.000,8.014 C2.482,8.014 2.051,8.409 2.004,8.924 L0.004,30.924 C-0.021,31.203 0.072,31.481 0.262,31.688 C0.451,31.896 0.719,32.014 1.000,32.014 L27.000,32.014 C27.281,32.014 27.549,31.896 27.738,31.688 C27.926,31.481 28.021,31.203 27.996,30.924 L25.996,8.924 ZM10.000,6.014 C10.000,3.808 11.795,2.014 14.000,2.014 C16.205,2.014 18.000,3.808 18.000,6.014 L18.000,8.014 L10.000,8.014 L10.000,6.014 ZM2.096,30.014 L3.913,10.014 L8.000,10.014 L8.000,12.291 C7.404,12.638 7.000,13.276 7.000,14.014 C7.000,15.118 7.896,16.014 9.000,16.014 C10.104,16.014 11.000,15.118 11.000,14.014 C11.000,13.276 10.596,12.638 10.000,12.291 L10.000,10.014 L18.000,10.014 L18.000,12.291 C17.404,12.638 17.000,13.275 17.000,14.014 C17.000,15.118 17.896,16.014 19.000,16.014 C20.103,16.014 21.000,15.118 21.000,14.014 C21.000,13.276 20.596,12.638 20.000,12.291 L20.000,10.014 L24.087,10.014 L25.904,30.014 L2.096,30.014 Z"/>
</svg>