<svg 
 xmlns="http://www.w3.org/2000/svg"
 xmlns:xlink="http://www.w3.org/1999/xlink"
 width="10px" height="10px">
<path fill-rule="evenodd"  fill="rgb(93, 183, 185)"
 d="M5.881,5.006 L9.812,1.077 C10.057,0.833 10.057,0.438 9.812,0.194 C9.568,-0.050 9.173,-0.050 8.928,0.194 L4.997,4.122 L1.066,0.194 C0.821,-0.050 0.426,-0.050 0.182,0.194 C-0.062,0.438 -0.062,0.833 0.182,1.077 L4.113,5.006 L0.182,8.934 C-0.062,9.177 -0.062,9.573 0.182,9.817 C0.304,9.939 0.464,10.000 0.624,10.000 C0.784,10.000 0.944,9.939 1.066,9.817 L4.997,5.889 L8.928,9.817 C9.050,9.939 9.210,10.000 9.370,10.000 C9.530,10.000 9.690,9.939 9.812,9.817 C10.057,9.573 10.057,9.177 9.812,8.934 L5.881,5.006 Z"/>
</svg>