<svg 
 xmlns="http://www.w3.org/2000/svg"
 xmlns:xlink="http://www.w3.org/1999/xlink"
 width="25px" height="26px">
<path fill-rule="evenodd"  fill="rgb(161, 198, 217)"
 d="M16.395,12.994 L24.186,21.095 C25.262,22.214 25.259,24.031 24.179,25.155 C23.098,26.278 21.350,26.281 20.274,25.162 L12.483,17.062 L4.718,25.136 C3.643,26.254 1.897,26.250 0.818,25.128 C-0.261,24.006 -0.264,22.190 0.810,21.072 L8.576,12.998 L0.789,4.901 C-0.288,3.782 -0.284,1.965 0.796,0.841 C1.876,-0.282 3.625,-0.285 4.701,0.834 L12.488,8.931 L20.275,0.833 C21.350,-0.285 23.097,-0.281 24.176,0.841 C25.255,1.963 25.258,3.779 24.183,4.896 L16.395,12.994 Z"/>
</svg>