<svg 
 xmlns="http://www.w3.org/2000/svg"
 xmlns:xlink="http://www.w3.org/1999/xlink"
 width="43px" height="45px">
<path fill-rule="evenodd"  fill="rgb(174, 219, 220)"
 d="M36.314,33.248 L35.142,33.248 L35.142,41.679 C35.142,43.507 33.642,44.999 31.804,44.999 L11.073,44.999 C9.235,44.999 7.735,43.507 7.735,41.679 L7.735,33.248 L6.685,33.248 C3.000,33.248 -0.000,30.264 -0.000,26.598 L-0.000,15.873 C-0.000,12.208 3.000,9.223 6.685,9.223 L7.745,9.223 L7.745,6.649 C7.745,2.984 10.745,-0.001 14.430,-0.001 L28.466,-0.001 C32.151,-0.001 35.152,2.984 35.152,6.649 L35.152,9.223 L36.314,9.223 C39.999,9.223 43.000,12.208 43.000,15.873 L43.000,26.598 C43.000,30.264 39.999,33.248 36.314,33.248 ZM10.267,41.698 C10.267,42.136 10.633,42.500 11.073,42.500 L31.804,42.500 C32.245,42.500 32.611,42.136 32.611,41.698 L32.611,27.792 L10.267,27.792 L10.267,41.698 ZM32.601,6.649 C32.601,4.374 30.736,2.517 28.448,2.517 L14.421,2.517 C12.133,2.517 10.267,4.374 10.267,6.649 L10.267,9.223 L32.601,9.223 L32.601,6.649 ZM40.468,15.882 C40.468,13.607 38.602,11.750 36.314,11.750 L6.685,11.750 C4.397,11.750 2.531,13.607 2.531,15.882 L2.531,26.607 C2.531,28.883 4.397,30.739 6.685,30.739 L7.745,30.739 L7.745,27.792 L5.879,27.792 C5.176,27.792 4.613,27.232 4.613,26.533 C4.613,25.833 5.176,25.274 5.879,25.274 L36.821,25.274 C37.524,25.274 38.087,25.833 38.087,26.533 C38.087,27.232 37.524,27.792 36.821,27.792 L35.152,27.792 L35.152,30.739 L36.314,30.739 C38.602,30.739 40.468,28.883 40.468,26.607 L40.468,15.882 ZM36.286,16.684 L33.717,16.684 C33.014,16.684 32.451,16.125 32.451,15.425 C32.451,14.726 33.014,14.166 33.717,14.166 L36.286,14.166 C36.990,14.166 37.552,14.726 37.552,15.425 C37.552,16.125 36.990,16.684 36.286,16.684 ZM29.545,39.133 L13.427,39.133 C12.724,39.133 12.161,38.573 12.161,37.874 C12.161,37.175 12.724,36.615 13.427,36.615 L29.554,36.615 C30.248,36.615 30.811,37.175 30.811,37.874 C30.811,38.573 30.248,39.133 29.545,39.133 ZM29.451,33.985 L13.333,33.985 C12.639,33.985 12.067,33.425 12.067,32.726 C12.067,32.026 12.630,31.467 13.333,31.467 L29.451,31.467 C30.154,31.467 30.717,32.026 30.717,32.726 C30.717,33.425 30.154,33.985 29.451,33.985 Z"/>
</svg>