<svg 
 xmlns="http://www.w3.org/2000/svg"
 xmlns:xlink="http://www.w3.org/1999/xlink"
 width="26px" height="27px">
<path fill-rule="evenodd"  opacity="0.341" fill="rgb(0, 0, 0)"
 d="M25.544,26.987 L0.461,26.987 C0.204,26.987 -0.003,26.786 -0.003,26.538 L-0.003,7.205 L-0.003,2.259 C-0.003,2.010 0.204,1.809 0.461,1.809 L3.713,1.809 L3.713,0.461 C3.713,0.212 3.920,0.011 4.177,0.011 L7.429,0.011 C7.686,0.011 7.893,0.212 7.893,0.461 L7.893,1.809 L18.112,1.809 L18.112,0.461 C18.112,0.212 18.320,0.011 18.577,0.011 L21.828,0.011 C22.085,0.011 22.293,0.212 22.293,0.461 L22.293,1.809 L25.544,1.809 C25.801,1.809 26.009,2.010 26.009,2.259 L26.009,7.205 L26.009,26.538 C26.009,26.786 25.801,26.987 25.544,26.987 ZM6.964,2.259 L6.964,0.910 L4.642,0.910 L4.642,2.259 L4.642,3.608 L6.964,3.608 L6.964,2.259 ZM21.364,2.259 L21.364,0.910 L19.041,0.910 L19.041,2.259 L19.041,3.608 L21.364,3.608 L21.364,2.259 ZM25.080,2.709 L22.293,2.709 L22.293,4.057 C22.293,4.306 22.085,4.507 21.828,4.507 L18.577,4.507 C18.320,4.507 18.112,4.306 18.112,4.057 L18.112,2.709 L7.893,2.709 L7.893,4.057 C7.893,4.306 7.686,4.507 7.429,4.507 L4.177,4.507 C3.920,4.507 3.713,4.306 3.713,4.057 L3.713,2.709 L0.926,2.709 L0.926,6.755 L25.080,6.755 L25.080,2.709 ZM25.080,7.654 L0.926,7.654 L0.926,26.088 L25.080,26.088 L25.080,7.654 ZM9.287,10.352 L12.538,10.352 L13.467,10.352 L16.719,10.352 L17.648,10.352 L21.828,10.352 L21.828,14.398 L21.828,15.298 L21.828,18.445 L21.828,19.344 L21.828,23.391 L17.648,23.391 L16.719,23.391 L13.467,23.391 L12.538,23.391 L9.287,23.391 L8.358,23.391 L4.177,23.391 L4.177,19.344 L4.177,18.445 L4.177,15.298 L4.177,14.398 L4.177,10.352 L8.358,10.352 L9.287,10.352 ZM17.648,22.491 L20.899,22.491 L20.899,19.344 L17.648,19.344 L17.648,22.491 ZM17.648,18.445 L20.899,18.445 L20.899,15.298 L17.648,15.298 L17.648,18.445 ZM17.648,14.398 L20.899,14.398 L20.899,11.251 L17.648,11.251 L17.648,14.398 ZM13.467,22.491 L16.719,22.491 L16.719,19.344 L13.467,19.344 L13.467,22.491 ZM13.467,18.445 L16.719,18.445 L16.719,15.298 L13.467,15.298 L13.467,18.445 ZM13.467,14.398 L16.719,14.398 L16.719,11.251 L13.467,11.251 L13.467,14.398 ZM9.287,22.491 L12.538,22.491 L12.538,19.344 L9.287,19.344 L9.287,22.491 ZM9.287,18.445 L12.538,18.445 L12.538,15.298 L9.287,15.298 L9.287,18.445 ZM9.287,14.398 L12.538,14.398 L12.538,11.251 L9.287,11.251 L9.287,14.398 ZM5.106,22.491 L8.358,22.491 L8.358,19.344 L5.106,19.344 L5.106,22.491 ZM5.106,18.445 L8.358,18.445 L8.358,15.298 L5.106,15.298 L5.106,18.445 ZM5.106,14.398 L8.358,14.398 L8.358,11.251 L5.106,11.251 L5.106,14.398 Z"/>
</svg>