<svg width="878" height="203" viewBox="0 0 878 203" fill="none" xmlns="http://www.w3.org/2000/svg">
<path fill-rule="evenodd" clip-rule="evenodd" d="M56.3781 56.9106C56.3781 34.1038 76.1275 16 99.9997 16C106.025 16 111.776 17.1469 117.009 19.2267C118.549 19.8384 119.304 21.5902 118.696 23.1396C118.089 24.689 116.348 25.4492 114.809 24.8376C110.271 23.0342 105.267 22.0322 99.9997 22.0322C78.9981 22.0322 62.37 37.8603 62.37 56.9106V162.087C62.37 181.138 78.9981 196.966 99.9997 196.966C105.267 196.966 110.271 195.964 114.809 194.16C116.349 193.549 118.089 194.309 118.696 195.858C119.304 197.408 118.549 199.159 117.009 199.771C111.776 201.851 106.025 202.998 99.9997 202.998C76.1275 202.998 56.3781 184.894 56.3781 162.087V56.9106Z" fill="white"/>
<path fill-rule="evenodd" clip-rule="evenodd" d="M133.82 35.8556C134.509 35.3955 135.439 35.5855 135.896 36.2798C139.842 42.2753 142.124 49.3427 142.124 56.9105V162.087C142.124 169.655 139.842 176.723 135.896 182.718C135.439 183.412 134.509 183.602 133.82 183.142C133.13 182.682 132.941 181.747 133.398 181.052C137.036 175.524 139.128 169.032 139.128 162.087V56.9105C139.128 49.9658 137.036 43.4733 133.398 37.9456C132.941 37.2513 133.13 36.3156 133.82 35.8556Z" fill="white"/>
<path fill-rule="evenodd" clip-rule="evenodd" d="M0 56.9106C0 34.1038 19.7494 16 43.6217 16C49.6471 16 55.3975 17.1469 60.6314 19.2267C62.1705 19.8384 62.9257 21.5902 62.3181 23.1396C61.7106 24.689 59.9705 25.4492 58.4314 24.8376C53.8932 23.0342 48.8889 22.0322 43.6217 22.0322C22.6201 22.0322 5.99197 37.8603 5.99197 56.9106V162.087C5.99197 181.137 22.6201 196.966 43.6217 196.966C48.8889 196.966 53.8932 195.964 58.4314 194.16C59.9705 193.549 61.7106 194.309 62.3181 195.858C62.9257 197.408 62.1705 199.159 60.6314 199.771C55.3975 201.851 49.6471 202.998 43.6217 202.998C19.7494 202.998 0 184.894 0 162.087V56.9106Z" fill="white"/>
<path fill-rule="evenodd" clip-rule="evenodd" d="M77.4407 35.8556C78.1304 35.3955 79.0599 35.5855 79.5169 36.2798C83.4628 42.2753 85.7446 49.3427 85.7446 56.9105V162.087C85.7446 169.655 83.4627 176.723 79.5167 182.718C79.0597 183.412 78.1302 183.602 77.4405 183.142C76.7509 182.682 76.5622 181.747 77.0192 181.052C80.6573 175.524 82.7486 169.032 82.7486 162.087V56.9105C82.7486 49.9658 80.6574 43.4733 77.0193 37.9456C76.5624 37.2513 76.751 36.3156 77.4407 35.8556Z" fill="white"/>
<path fill-rule="evenodd" clip-rule="evenodd" d="M112.757 59.9144C112.757 35.6612 132.287 16 156.378 16C180.47 16 200 35.6612 200 59.9144V159.083C200 183.337 180.47 202.998 156.378 202.998C132.287 202.998 112.757 183.337 112.757 159.083L112.757 59.9144ZM156.378 22.0322C135.596 22.0322 118.749 38.9926 118.749 59.9144L118.749 159.083C118.749 180.005 135.596 196.966 156.378 196.966C177.161 196.966 194.008 180.005 194.008 159.083V59.9144C194.008 38.9926 177.161 22.0322 156.378 22.0322Z" fill="white"/>
<path d="M257.396 64V38.272H247.796V32H274.484V38.272H264.436V64H257.396ZM293.651 64.64C288.872 64.64 284.947 63.0827 281.875 59.968C278.803 56.8107 277.267 52.8213 277.267 48C277.267 43.1787 278.782 39.2107 281.811 36.096C284.84 32.9387 288.808 31.36 293.715 31.36C298.664 31.36 302.654 33.088 305.683 36.544C308.712 39.9573 310.056 44.352 309.715 49.728H284.243C284.328 52.2027 285.267 54.272 287.059 55.936C288.851 57.6 291.134 58.432 293.907 58.432C297.832 58.432 300.52 56.9387 301.971 53.952H309.331C308.35 57.0667 306.472 59.6267 303.699 61.632C300.926 63.6373 297.576 64.64 293.651 64.64ZM293.523 37.248C291.219 37.248 289.235 37.9093 287.571 39.232C285.95 40.512 284.904 42.3467 284.435 44.736H302.163C301.651 42.2613 300.606 40.4053 299.027 39.168C297.448 37.888 295.614 37.248 293.523 37.248ZM323.984 77.376H316.944V32H323.984V36.288C324.966 34.9227 326.374 33.7707 328.208 32.832C330.086 31.8507 332.112 31.36 334.288 31.36C338.64 31.36 342.288 32.9813 345.232 36.224C348.219 39.4667 349.712 43.392 349.712 48C349.712 52.608 348.219 56.5333 345.232 59.776C342.288 63.0187 338.64 64.64 334.288 64.64C332.112 64.64 330.086 64.1707 328.208 63.232C326.374 62.2507 324.966 61.0773 323.984 59.712V77.376ZM333.008 58.24C335.782 58.24 338.064 57.2587 339.856 55.296C341.648 53.3333 342.544 50.9013 342.544 48C342.544 45.0987 341.648 42.6667 339.856 40.704C338.064 38.7413 335.782 37.76 333.008 37.76C330.192 37.76 327.888 38.7413 326.096 40.704C324.304 42.6667 323.408 45.0987 323.408 48C323.408 50.9013 324.304 53.3333 326.096 55.296C327.888 57.2587 330.192 58.24 333.008 58.24ZM363.922 77.376H356.882V32H363.922V36.288C364.903 34.9227 366.311 33.7707 368.146 32.832C370.023 31.8507 372.05 31.36 374.226 31.36C378.578 31.36 382.226 32.9813 385.17 36.224C388.157 39.4667 389.65 43.392 389.65 48C389.65 52.608 388.157 56.5333 385.17 59.776C382.226 63.0187 378.578 64.64 374.226 64.64C372.05 64.64 370.023 64.1707 368.146 63.232C366.311 62.2507 364.903 61.0773 363.922 59.712V77.376ZM372.946 58.24C375.719 58.24 378.002 57.2587 379.794 55.296C381.586 53.3333 382.482 50.9013 382.482 48C382.482 45.0987 381.586 42.6667 379.794 40.704C378.002 38.7413 375.719 37.76 372.946 37.76C370.13 37.76 367.826 38.7413 366.034 40.704C364.242 42.6667 363.346 45.0987 363.346 48C363.346 50.9013 364.242 53.3333 366.034 55.296C367.826 57.2587 370.13 58.24 372.946 58.24ZM403.091 64H396.819V32H403.859V53.312L420.179 32H426.451V64H419.411V42.688L403.091 64ZM441.896 64V38.272H432.296V32H458.984V38.272H448.936V64H441.896ZM490.375 59.84C487.175 63.04 483.207 64.64 478.471 64.64C473.735 64.64 469.746 63.04 466.503 59.84C463.303 56.5973 461.703 52.6507 461.703 48C461.703 43.3493 463.303 39.424 466.503 36.224C469.746 32.9813 473.735 31.36 478.471 31.36C483.207 31.36 487.175 32.9813 490.375 36.224C493.618 39.424 495.239 43.3493 495.239 48C495.239 52.6507 493.618 56.5973 490.375 59.84ZM478.471 58.112C481.244 58.112 483.527 57.152 485.319 55.232C487.154 53.2693 488.071 50.8587 488.071 48C488.071 45.1413 487.154 42.752 485.319 40.832C483.527 38.8693 481.244 37.888 478.471 37.888C475.655 37.888 473.33 38.8693 471.495 40.832C469.703 42.752 468.807 45.1413 468.807 48C468.807 50.8587 469.703 53.2693 471.495 55.232C473.33 57.152 475.655 58.112 478.471 58.112ZM509.359 77.376H502.319V32H509.359V36.288C510.341 34.9227 511.749 33.7707 513.583 32.832C515.461 31.8507 517.487 31.36 519.663 31.36C524.015 31.36 527.663 32.9813 530.607 36.224C533.594 39.4667 535.087 43.392 535.087 48C535.087 52.608 533.594 56.5333 530.607 59.776C527.663 63.0187 524.015 64.64 519.663 64.64C517.487 64.64 515.461 64.1707 513.583 63.232C511.749 62.2507 510.341 61.0773 509.359 59.712V77.376ZM518.383 58.24C521.157 58.24 523.439 57.2587 525.231 55.296C527.023 53.3333 527.919 50.9013 527.919 48C527.919 45.0987 527.023 42.6667 525.231 40.704C523.439 38.7413 521.157 37.76 518.383 37.76C515.567 37.76 513.263 38.7413 511.471 40.704C509.679 42.6667 508.783 45.0987 508.783 48C508.783 50.9013 509.679 53.3333 511.471 55.296C513.263 57.2587 515.567 58.24 518.383 58.24ZM548.529 64H542.257V32H549.297V53.312L565.617 32H571.889V64H564.849V42.688L548.529 64ZM576.198 64L588.166 51.712C585.99 50.944 584.305 49.7493 583.11 48.128C581.915 46.5067 581.318 44.608 581.318 42.432C581.318 39.36 582.342 36.864 584.39 34.944C586.438 32.9813 589.318 32 593.03 32H605.958V64H598.918V53.056H595.334L584.518 64H576.198ZM593.414 47.168H598.918V37.952H593.414C589.873 37.952 588.102 39.5307 588.102 42.688C588.102 44.096 588.571 45.2053 589.51 46.016C590.491 46.784 591.793 47.168 593.414 47.168Z" fill="white"/>
<path d="M256.692 131.824H252.212V86.4475H256.692V91.8235C257.844 90.0315 259.487 88.5808 261.62 87.4715C263.796 86.3622 266.1 85.8075 268.532 85.8075C273.012 85.8075 276.788 87.4288 279.86 90.6715C282.932 93.9142 284.468 97.8395 284.468 102.448C284.468 107.056 282.932 110.981 279.86 114.224C276.788 117.466 273.012 119.088 268.532 119.088C266.1 119.088 263.796 118.533 261.62 117.424C259.487 116.314 257.844 114.864 256.692 113.072V131.824ZM259.572 111.344C261.791 113.733 264.628 114.928 268.084 114.928C271.54 114.928 274.356 113.733 276.532 111.344C278.751 108.912 279.86 105.946 279.86 102.448C279.86 98.9488 278.751 96.0048 276.532 93.6155C274.356 91.1835 271.54 89.9675 268.084 89.9675C264.628 89.9675 261.791 91.1835 259.572 93.6155C257.396 96.0048 256.308 98.9488 256.308 102.448C256.308 105.946 257.396 108.912 259.572 111.344ZM318.821 114.288C315.664 117.488 311.675 119.088 306.853 119.088C302.032 119.088 298.043 117.488 294.885 114.288C291.728 111.045 290.149 107.098 290.149 102.448C290.149 97.7968 291.728 93.8715 294.885 90.6715C298.043 87.4288 302.032 85.8075 306.853 85.8075C311.675 85.8075 315.664 87.4288 318.821 90.6715C321.979 93.8715 323.557 97.7968 323.557 102.448C323.557 107.098 321.979 111.045 318.821 114.288ZM298.085 111.344C300.347 113.733 303.269 114.928 306.853 114.928C310.437 114.928 313.339 113.733 315.557 111.344C317.819 108.912 318.949 105.946 318.949 102.448C318.949 98.9488 317.819 96.0048 315.557 93.6155C313.339 91.1835 310.437 89.9675 306.853 89.9675C303.269 89.9675 300.347 91.1835 298.085 93.6155C295.867 96.0048 294.757 98.9488 294.757 102.448C294.757 105.946 295.867 108.912 298.085 111.344ZM345.916 119.088C341.095 119.088 337.105 117.488 333.948 114.288C330.791 111.045 329.212 107.098 329.212 102.448C329.212 97.7968 330.791 93.8715 333.948 90.6715C337.105 87.4288 341.095 85.8075 345.916 85.8075C349.799 85.8075 353.191 86.8955 356.092 89.0715C358.993 91.2048 360.935 93.9782 361.916 97.3915H357.052C356.284 95.1728 354.897 93.3808 352.892 92.0155C350.887 90.6502 348.561 89.9675 345.916 89.9675C342.332 89.9675 339.409 91.1835 337.148 93.6155C334.929 96.0048 333.82 98.9488 333.82 102.448C333.82 105.946 334.929 108.912 337.148 111.344C339.409 113.733 342.332 114.928 345.916 114.928C348.561 114.928 350.887 114.245 352.892 112.88C354.897 111.514 356.284 109.722 357.052 107.504H361.916C360.935 110.917 358.993 113.712 356.092 115.888C353.191 118.021 349.799 119.088 345.916 119.088ZM375.794 118.448V90.6715H365.234V86.4475H391.282V90.6715H380.274V118.448H375.794ZM410.273 119.088C405.793 119.088 402.017 117.466 398.945 114.224C395.873 110.981 394.337 107.056 394.337 102.448C394.337 97.8395 395.873 93.9142 398.945 90.6715C402.017 87.4288 405.793 85.8075 410.273 85.8075C412.705 85.8075 414.988 86.3622 417.121 87.4715C419.297 88.5808 420.961 90.0315 422.113 91.8235V86.4475H426.593V118.448H422.113V113.072C420.961 114.864 419.297 116.314 417.121 117.424C414.988 118.533 412.705 119.088 410.273 119.088ZM402.209 111.344C404.428 113.733 407.265 114.928 410.721 114.928C414.177 114.928 416.993 113.733 419.169 111.344C421.388 108.912 422.497 105.946 422.497 102.448C422.497 98.9488 421.388 96.0048 419.169 93.6155C416.993 91.1835 414.177 89.9675 410.721 89.9675C407.265 89.9675 404.428 91.1835 402.209 93.6155C400.033 96.0048 398.945 98.9488 398.945 102.448C398.945 105.946 400.033 108.912 402.209 111.344Z" fill="white"/>
<path d="M283.7 168.671V181.023H279.348V172.895H252.212V140.895H256.692V168.671H274.42V140.895H278.9V168.671H283.7ZM295.555 172.895H291.587V140.895H296.067V165.791L315.267 140.895H319.235V172.895H314.755V147.999L295.555 172.895ZM350.052 186.271H345.572V173.535H345.316C339.855 173.535 335.524 171.935 332.324 168.735C329.124 165.535 327.524 161.588 327.524 156.895C327.524 152.202 329.124 148.255 332.324 145.055C335.524 141.855 339.855 140.255 345.316 140.255H345.572V124.831H350.052V140.255H350.308C355.77 140.255 360.1 141.855 363.3 145.055C366.5 148.255 368.1 152.202 368.1 156.895C368.1 161.588 366.5 165.535 363.3 168.735C360.1 171.935 355.77 173.535 350.308 173.535H350.052V186.271ZM350.308 144.415H350.052V169.375H350.308C354.447 169.375 357.668 168.202 359.972 165.855C362.319 163.508 363.492 160.522 363.492 156.895C363.492 153.311 362.298 150.346 359.908 147.999C357.519 145.61 354.319 144.415 350.308 144.415ZM345.572 169.375V144.415H345.316C341.306 144.415 338.106 145.61 335.716 147.999C333.327 150.346 332.132 153.311 332.132 156.895C332.132 160.522 333.284 163.508 335.588 165.855C337.935 168.202 341.178 169.375 345.316 169.375H345.572ZM380.88 186.271H376.4V140.895H380.88V146.271C382.032 144.479 383.675 143.028 385.808 141.919C387.984 140.81 390.288 140.255 392.72 140.255C397.2 140.255 400.976 141.876 404.048 145.119C407.12 148.362 408.656 152.287 408.656 156.895C408.656 161.503 407.12 165.428 404.048 168.671C400.976 171.914 397.2 173.535 392.72 173.535C390.288 173.535 387.984 172.98 385.808 171.871C383.675 170.762 382.032 169.311 380.88 167.519V186.271ZM383.76 165.791C385.979 168.18 388.816 169.375 392.272 169.375C395.728 169.375 398.544 168.18 400.72 165.791C402.939 163.359 404.048 160.394 404.048 156.895C404.048 153.396 402.939 150.452 400.72 148.063C398.544 145.631 395.728 144.415 392.272 144.415C388.816 144.415 385.979 145.631 383.76 148.063C381.584 150.452 380.496 153.396 380.496 156.895C380.496 160.394 381.584 163.359 383.76 165.791ZM443.009 168.735C439.852 171.935 435.862 173.535 431.041 173.535C426.22 173.535 422.23 171.935 419.073 168.735C415.916 165.492 414.337 161.546 414.337 156.895C414.337 152.244 415.916 148.319 419.073 145.119C422.23 141.876 426.22 140.255 431.041 140.255C435.862 140.255 439.852 141.876 443.009 145.119C446.166 148.319 447.745 152.244 447.745 156.895C447.745 161.546 446.166 165.492 443.009 168.735ZM422.273 165.791C424.534 168.18 427.457 169.375 431.041 169.375C434.625 169.375 437.526 168.18 439.745 165.791C442.006 163.359 443.137 160.394 443.137 156.895C443.137 153.396 442.006 150.452 439.745 148.063C437.526 145.631 434.625 144.415 431.041 144.415C427.457 144.415 424.534 145.631 422.273 148.063C420.054 150.452 418.945 153.396 418.945 156.895C418.945 160.394 420.054 163.359 422.273 165.791ZM456.087 172.895V140.895H469.591C473.005 140.895 475.629 141.642 477.463 143.135C479.298 144.586 480.215 146.655 480.215 149.343C480.215 152.116 479.063 154.292 476.759 155.871C480.471 157.407 482.327 160.031 482.327 163.743C482.327 166.474 481.367 168.692 479.447 170.399C477.527 172.063 474.669 172.895 470.871 172.895H456.087ZM460.567 168.799H471.447C473.41 168.799 474.946 168.351 476.055 167.455C477.165 166.516 477.719 165.215 477.719 163.551C477.719 161.887 477.165 160.607 476.055 159.711C474.946 158.772 473.41 158.303 471.447 158.303H460.567V168.799ZM460.567 154.335H470.231C471.81 154.335 473.111 153.951 474.135 153.183C475.159 152.415 475.671 151.22 475.671 149.599C475.671 147.978 475.159 146.804 474.135 146.079C473.111 145.354 471.81 144.991 470.231 144.991H460.567V154.335ZM516.696 168.735C513.539 171.935 509.55 173.535 504.728 173.535C499.907 173.535 495.918 171.935 492.76 168.735C489.603 165.492 488.024 161.546 488.024 156.895C488.024 152.244 489.603 148.319 492.76 145.119C495.918 141.876 499.907 140.255 504.728 140.255C509.55 140.255 513.539 141.876 516.696 145.119C519.854 148.319 521.432 152.244 521.432 156.895C521.432 161.546 519.854 165.492 516.696 168.735ZM495.96 165.791C498.222 168.18 501.144 169.375 504.728 169.375C508.312 169.375 511.214 168.18 513.432 165.791C515.694 163.359 516.824 160.394 516.824 156.895C516.824 153.396 515.694 150.452 513.432 148.063C511.214 145.631 508.312 144.415 504.728 144.415C501.144 144.415 498.222 145.631 495.96 148.063C493.742 150.452 492.632 153.396 492.632 156.895C492.632 160.394 493.742 163.359 495.96 165.791ZM543.023 173.535C538.415 173.535 534.618 171.956 531.631 168.799C528.644 165.642 527.151 161.674 527.151 156.895C527.151 152.116 528.602 148.148 531.503 144.991C534.404 141.834 538.308 140.255 543.215 140.255C548.122 140.255 551.94 142.047 554.671 145.631C557.402 149.172 558.554 153.354 558.127 158.175H531.759C531.759 161.375 532.89 164.042 535.151 166.175C537.412 168.308 540.036 169.375 543.023 169.375C547.631 169.375 550.959 167.37 553.007 163.359H557.615C556.804 166.303 555.14 168.735 552.623 170.655C550.106 172.575 546.906 173.535 543.023 173.535ZM543.023 144.415C540.335 144.415 537.967 145.226 535.919 146.847C533.871 148.426 532.57 150.9 532.015 154.271H553.519C553.007 151.114 551.812 148.682 549.935 146.975C548.058 145.268 545.754 144.415 543.023 144.415ZM586.755 186.271H582.275V140.895H586.755V146.271C587.907 144.479 589.55 143.028 591.683 141.919C593.859 140.81 596.163 140.255 598.595 140.255C603.075 140.255 606.851 141.876 609.923 145.119C612.995 148.362 614.531 152.287 614.531 156.895C614.531 161.503 612.995 165.428 609.923 168.671C606.851 171.914 603.075 173.535 598.595 173.535C596.163 173.535 593.859 172.98 591.683 171.871C589.55 170.762 587.907 169.311 586.755 167.519V186.271ZM589.635 165.791C591.854 168.18 594.691 169.375 598.147 169.375C601.603 169.375 604.419 168.18 606.595 165.791C608.814 163.359 609.923 160.394 609.923 156.895C609.923 153.396 608.814 150.452 606.595 148.063C604.419 145.631 601.603 144.415 598.147 144.415C594.691 144.415 591.854 145.631 589.635 148.063C587.459 150.452 586.371 153.396 586.371 156.895C586.371 160.394 587.459 163.359 589.635 165.791ZM636.148 173.535C631.668 173.535 627.892 171.914 624.82 168.671C621.748 165.428 620.212 161.503 620.212 156.895C620.212 152.287 621.748 148.362 624.82 145.119C627.892 141.876 631.668 140.255 636.148 140.255C638.58 140.255 640.863 140.81 642.996 141.919C645.172 143.028 646.836 144.479 647.988 146.271V140.895H652.468V172.895H647.988V167.519C646.836 169.311 645.172 170.762 642.996 171.871C640.863 172.98 638.58 173.535 636.148 173.535ZM628.084 165.791C630.303 168.18 633.14 169.375 636.596 169.375C640.052 169.375 642.868 168.18 645.044 165.791C647.263 163.359 648.372 160.394 648.372 156.895C648.372 153.396 647.263 150.452 645.044 148.063C642.868 145.631 640.052 144.415 636.596 144.415C633.14 144.415 630.303 145.631 628.084 148.063C625.908 150.452 624.82 153.396 624.82 156.895C624.82 160.394 625.908 163.359 628.084 165.791ZM672.998 173.535C669.756 173.535 666.982 172.767 664.678 171.231C662.374 169.652 660.924 167.476 660.326 164.703H664.806C666.001 167.988 668.753 169.631 673.062 169.631C675.622 169.631 677.564 169.076 678.886 167.967C680.209 166.858 680.87 165.471 680.87 163.807C680.87 162.015 680.209 160.628 678.886 159.647C677.564 158.666 675.686 158.175 673.254 158.175H669.606V154.207H673.318C675.324 154.207 676.881 153.802 677.99 152.991C679.142 152.138 679.718 150.879 679.718 149.215C679.718 147.594 679.1 146.356 677.862 145.503C676.625 144.607 675.004 144.159 672.998 144.159C668.945 144.159 666.428 145.78 665.446 149.023H661.03C661.542 146.207 662.908 144.052 665.126 142.559C667.345 141.023 669.969 140.255 672.998 140.255C676.412 140.255 679.1 141.066 681.062 142.687C683.068 144.266 684.07 146.356 684.07 148.959C684.07 152.202 682.684 154.591 679.91 156.127C683.58 157.706 685.414 160.372 685.414 164.127C685.414 166.858 684.305 169.119 682.086 170.911C679.91 172.66 676.881 173.535 672.998 173.535ZM694.025 172.895V140.895H707.529C710.942 140.895 713.566 141.642 715.401 143.135C717.236 144.586 718.153 146.655 718.153 149.343C718.153 152.116 717.001 154.292 714.697 155.871C718.409 157.407 720.265 160.031 720.265 163.743C720.265 166.474 719.305 168.692 717.385 170.399C715.465 172.063 712.606 172.895 708.809 172.895H694.025ZM698.505 168.799H709.385C711.348 168.799 712.884 168.351 713.993 167.455C715.102 166.516 715.657 165.215 715.657 163.551C715.657 161.887 715.102 160.607 713.993 159.711C712.884 158.772 711.348 158.303 709.385 158.303H698.505V168.799ZM698.505 154.335H708.169C709.748 154.335 711.049 153.951 712.073 153.183C713.097 152.415 713.609 151.22 713.609 149.599C713.609 147.978 713.097 146.804 712.073 146.079C711.049 145.354 709.748 144.991 708.169 144.991H698.505V154.335ZM732.618 172.895H728.65V140.895H733.13V165.791L752.33 140.895H756.298V172.895H751.818V147.999L732.618 172.895ZM773.419 172.895V145.119H762.859V140.895H788.907V145.119H777.899V172.895H773.419ZM799.493 172.895H795.525V140.895H800.005V165.791L819.205 140.895H823.173V172.895H818.693V147.999L799.493 172.895ZM847.398 173.535C842.79 173.535 838.993 171.956 836.006 168.799C833.019 165.642 831.526 161.674 831.526 156.895C831.526 152.116 832.977 148.148 835.878 144.991C838.779 141.834 842.683 140.255 847.59 140.255C852.497 140.255 856.315 142.047 859.046 145.631C861.777 149.172 862.929 153.354 862.502 158.175H836.134C836.134 161.375 837.265 164.042 839.526 166.175C841.787 168.308 844.411 169.375 847.398 169.375C852.006 169.375 855.334 167.37 857.382 163.359H861.99C861.179 166.303 859.515 168.735 856.998 170.655C854.481 172.575 851.281 173.535 847.398 173.535ZM847.398 144.415C844.71 144.415 842.342 145.226 840.294 146.847C838.246 148.426 836.945 150.9 836.39 154.271H857.894C857.382 151.114 856.187 148.682 854.31 146.975C852.433 145.268 850.129 144.415 847.398 144.415ZM876.21 172.127C875.4 172.98 874.418 173.407 873.266 173.407C872.114 173.407 871.112 172.98 870.258 172.127C869.448 171.274 869.042 170.271 869.042 169.119C869.042 167.967 869.448 166.964 870.258 166.111C871.112 165.258 872.114 164.831 873.266 164.831C874.418 164.831 875.4 165.258 876.21 166.111C877.064 166.964 877.49 167.967 877.49 169.119C877.49 170.271 877.064 171.274 876.21 172.127Z" fill="white"/>
</svg>
