<svg 
 xmlns="http://www.w3.org/2000/svg"
 xmlns:xlink="http://www.w3.org/1999/xlink"
 width="28px" height="33px">
<path fill-rule="evenodd"  fill="rgb(0, 0, 0)"
 d="M25.996,8.956 C25.949,8.441 25.518,8.046 25.000,8.046 L20.000,8.046 L20.000,6.046 C20.000,2.737 17.309,0.046 14.000,0.046 C10.691,0.046 8.000,2.737 8.000,6.046 L8.000,8.046 L3.000,8.046 C2.482,8.046 2.051,8.441 2.004,8.956 L0.004,30.956 C-0.021,31.236 0.072,31.513 0.262,31.720 C0.451,31.928 0.719,32.046 1.000,32.046 L27.000,32.046 C27.281,32.046 27.549,31.928 27.738,31.720 C27.926,31.513 28.021,31.236 27.996,30.956 L25.996,8.956 ZM10.000,6.046 C10.000,3.840 11.795,2.046 14.000,2.046 C16.205,2.046 18.000,3.840 18.000,6.046 L18.000,8.046 L10.000,8.046 L10.000,6.046 ZM2.096,30.046 L3.913,10.046 L8.000,10.046 L8.000,12.323 C7.404,12.670 7.000,13.308 7.000,14.046 C7.000,15.150 7.896,16.046 9.000,16.046 C10.104,16.046 11.000,15.150 11.000,14.046 C11.000,13.308 10.596,12.670 10.000,12.323 L10.000,10.046 L18.000,10.046 L18.000,12.323 C17.404,12.670 17.000,13.307 17.000,14.046 C17.000,15.150 17.896,16.046 19.000,16.046 C20.103,16.046 21.000,15.150 21.000,14.046 C21.000,13.308 20.596,12.670 20.000,12.323 L20.000,10.046 L24.087,10.046 L25.904,30.046 L2.096,30.046 Z"/>
</svg>