<svg 
 xmlns="http://www.w3.org/2000/svg"
 xmlns:xlink="http://www.w3.org/1999/xlink"
 width="34px" height="34px">
<path fill-rule="evenodd"  fill="rgb(0, 0, 0)"
 d="M22.971,15.145 L25.040,15.145 L25.040,24.046 C25.040,24.590 24.600,25.031 24.056,25.031 L9.058,25.031 C8.515,25.031 8.074,24.590 8.074,24.046 L8.074,15.145 L10.144,15.145 C10.045,15.597 9.992,16.066 9.992,16.547 C9.992,20.173 12.931,23.112 16.557,23.112 C20.183,23.112 23.122,20.173 23.122,16.547 C23.122,16.066 23.069,15.597 22.971,15.145 ZM16.557,20.969 C18.999,20.969 20.979,18.990 20.979,16.547 C20.979,14.105 18.999,12.125 16.557,12.125 C14.115,12.125 12.135,14.105 12.135,16.547 C12.135,18.990 14.115,20.969 16.557,20.969 ZM21.855,12.006 L23.540,12.006 C24.033,12.006 24.434,11.605 24.434,11.112 L24.434,9.427 C24.434,8.934 24.033,8.533 23.540,8.533 L21.855,8.533 C21.361,8.533 20.961,8.934 20.961,9.427 L20.961,11.112 C20.961,11.605 21.361,12.006 21.855,12.006 ZM33.057,0.047 L33.057,33.047 L0.057,33.047 L0.057,0.047 L33.057,0.047 ZM27.068,8.688 C27.068,7.224 25.881,6.037 24.417,6.037 L8.698,6.037 C7.234,6.037 6.047,7.224 6.047,8.688 L6.047,24.407 C6.047,25.871 7.234,27.058 8.698,27.058 L24.417,27.058 C25.881,27.058 27.068,25.871 27.068,24.407 L27.068,8.688 Z"/>
</svg>